<svg width="97" height="60" viewBox="0 0 97 60" fill="none" xmlns="http://www.w3.org/2000/svg">
<path fill-rule="evenodd" clip-rule="evenodd" d="M55.4402 19.323H63.8232V28.731H68.0611C70.0175 28.731 72.0313 28.347 73.8866 27.657C74.7965 27.318 75.8211 26.847 76.7174 26.253C75.5342 24.558 74.9304 22.413 74.7528 20.304C74.5123 17.433 75.0397 13.695 76.8103 11.445L77.6928 10.326L78.7421 11.253C81.387 13.584 83.6085 16.845 84.0019 20.559C87.1852 19.53 90.9231 19.773 93.7292 21.552L94.8796 22.281L94.273 23.58C91.8985 28.665 86.9392 30.24 82.0865 29.961C74.8293 49.809 59.0251 59.208 39.8656 59.208C29.9661 59.208 20.8836 55.146 15.7139 45.504L15.6292 45.348L14.8751 43.665C13.1263 39.42 12.5471 34.77 12.9405 30.126L13.058 28.734H20.2278V19.323H28.6108V10.116H45.3795V0.911987H55.4402V19.323Z" fill="#394D54"/>
<path d="M82.6031 22.803C83.166 18.006 79.8953 14.238 77.8679 12.45C75.5317 15.417 75.1683 23.19 78.8351 26.463C76.7886 28.458 72.4796 30.267 68.0641 30.267H14.3342C13.9053 35.325 14.7141 39.984 16.5611 43.971L17.1732 45.198C17.5612 45.918 17.982 46.614 18.441 47.286C20.6488 47.442 22.6872 47.496 24.5507 47.451C28.2121 47.361 31.1986 46.887 33.4637 46.026C33.7998 45.897 34.1687 46.095 34.2862 46.464C34.4037 46.833 34.2233 47.238 33.8873 47.367C33.5867 47.481 33.2725 47.589 32.9473 47.691C31.1631 48.249 29.2531 48.627 26.7858 48.792C26.9306 48.795 26.6328 48.816 26.6328 48.816C26.5481 48.822 26.4442 48.834 26.3595 48.84C25.3895 48.9 24.3403 48.912 23.2692 48.912C22.097 48.912 20.9439 48.888 19.6542 48.816L19.6214 48.84C24.0971 54.363 31.0975 57.678 39.8712 57.678C58.4406 57.678 74.1928 48.639 81.1659 28.35C86.1142 28.908 90.8686 27.522 93.0327 22.887C89.5844 20.7 85.1524 21.396 82.6031 22.803Z" fill="#00AADA"/>
<path d="M82.603 22.803C83.1659 18.006 79.8952 14.238 77.8678 12.45C75.5316 15.417 75.1682 23.19 78.835 26.463C76.7885 28.458 72.4795 30.267 68.0639 30.267H17.5146C17.296 38.013 19.9137 43.896 24.5478 47.451C28.2092 47.361 31.1957 46.887 33.4609 46.026C33.797 45.897 34.1658 46.095 34.2833 46.464C34.4008 46.833 34.2205 47.238 33.8844 47.367C33.5838 47.481 33.2696 47.589 32.9445 47.691C31.1602 48.249 29.0863 48.675 26.619 48.84L26.5589 48.777C32.8789 52.335 42.0433 52.323 52.5494 47.892C64.3287 42.924 75.2911 33.456 82.9391 22.629C82.8243 22.686 82.7096 22.743 82.603 22.803Z" fill="#24B8EB"/>
<path d="M14.4351 36.411C14.7684 39.12 15.4898 41.658 16.5609 43.968L17.1729 45.195C17.5609 45.915 17.9817 46.611 18.4407 47.283C20.6513 47.439 22.6869 47.493 24.5504 47.448C28.2118 47.358 31.1983 46.884 33.4635 46.023C33.7995 45.894 34.1684 46.092 34.2859 46.461C34.4034 46.83 34.2231 47.235 33.887 47.364C33.5864 47.478 33.2722 47.586 32.947 47.688C31.1628 48.246 29.0998 48.648 26.6325 48.813C26.5478 48.819 26.4002 48.819 26.3155 48.825C25.3455 48.885 24.3072 48.921 23.2361 48.921C22.0639 48.921 20.8671 48.897 19.5774 48.825C24.0531 54.348 31.0972 57.675 39.8709 57.675C55.768 57.675 69.5994 51.051 77.6271 36.411H14.4351Z" fill="#008BB8"/>
<path d="M17.998 36.411C18.9489 41.169 21.2332 44.904 24.5476 47.448C28.209 47.358 31.1955 46.884 33.4607 46.023C33.7967 45.894 34.1656 46.092 34.2831 46.461C34.4006 46.83 34.2203 47.235 33.8842 47.364C33.5836 47.478 33.2694 47.586 32.9442 47.688C31.16 48.246 29.0533 48.648 26.586 48.813C32.906 52.371 42.0431 52.32 52.5464 47.889C58.902 45.207 65.0171 41.217 70.5065 36.411H17.998Z" fill="#039BC6"/>
<path d="M23.2473 48.882C24.3184 48.882 25.3403 48.852 26.3103 48.792C26.395 48.786 26.477 48.78 26.559 48.774C26.559 48.774 26.559 48.774 26.5617 48.774C29.0291 48.606 31.1631 48.246 32.9473 47.685C33.2725 47.583 33.5867 47.475 33.8873 47.361C34.2234 47.232 34.4037 46.83 34.2862 46.458C34.1687 46.089 33.8026 45.891 33.4637 46.02C31.1986 46.881 28.2121 47.355 24.5507 47.445C22.6872 47.49 20.6515 47.436 18.441 47.28C18.329 47.271 18.217 47.265 18.1022 47.256C17.747 47.232 17.4383 47.523 17.4137 47.916C17.3891 48.306 17.6596 48.645 18.0148 48.672C18.4656 48.705 18.9083 48.735 19.3455 48.759C19.4138 48.762 19.4821 48.765 19.5504 48.771C20.8428 48.846 22.0751 48.882 23.2473 48.882Z" fill="#394D54"/>
<path fill-rule="evenodd" clip-rule="evenodd" d="M27.7147 21.522H28.2885V28.17H27.7147V21.522ZM26.6136 21.522H27.2092V28.17H26.6136V21.522ZM25.5124 21.522H26.1081V28.17H25.5124V21.522ZM24.4113 21.522H25.0069V28.17H24.4113V21.522ZM23.3101 21.522H23.9058V28.17H23.3101V21.522ZM22.2308 21.522H22.8046V28.17H22.2308V21.522ZM21.627 20.856H28.8924V28.833H21.627V20.856Z" fill="#00ACD3"/>
<path fill-rule="evenodd" clip-rule="evenodd" d="M36.0975 12.315H36.6713V18.963H36.0975V12.315ZM34.9964 12.315H35.592V18.963H34.9964V12.315ZM33.8952 12.315H34.4909V18.963H33.8952V12.315ZM32.7941 12.315H33.3897V18.963H32.7941V12.315ZM31.6929 12.315H32.2886V18.963H31.6929V12.315ZM30.6164 12.315H31.1902V18.963H30.6164V12.315ZM30.0098 11.652H37.2752V19.629H30.0098V11.652Z" fill="#00ACD3"/>
<path fill-rule="evenodd" clip-rule="evenodd" d="M36.0975 21.522H36.6713V28.17H36.0975V21.522ZM34.9964 21.522H35.592V28.17H34.9964V21.522ZM33.8952 21.522H34.4909V28.17H33.8952V21.522ZM32.7941 21.522H33.3897V28.17H32.7941V21.522ZM31.6929 21.522H32.2886V28.17H31.6929V21.522ZM30.6164 21.522H31.1902V28.17H30.6164V21.522ZM30.0098 20.856H37.2752V28.833H30.0098V20.856Z" fill="#20C2EF"/>
<path fill-rule="evenodd" clip-rule="evenodd" d="M44.4808 21.522H45.0546V28.17H44.4808V21.522ZM43.3797 21.522H43.9754V28.17H43.3797V21.522ZM42.2785 21.522H42.8742V28.17H42.2785V21.522ZM41.1774 21.522H41.773V28.17H41.1774V21.522ZM40.0762 21.522H40.6719V28.17H40.0762V21.522ZM38.9997 21.522H39.5735V28.17H38.9997V21.522ZM38.3931 20.856H45.6585V28.833H38.3931V20.856Z" fill="#00ACD3"/>
<path fill-rule="evenodd" clip-rule="evenodd" d="M44.4808 12.315H45.0546V18.963H44.4808V12.315ZM43.3797 12.315H43.9754V18.963H43.3797V12.315ZM42.2785 12.315H42.8742V18.963H42.2785V12.315ZM41.1774 12.315H41.773V18.963H41.1774V12.315ZM40.0762 12.315H40.6719V18.963H40.0762V12.315ZM38.9997 12.315H39.5735V18.963H38.9997V12.315ZM38.3931 11.652H45.6585V19.629H38.3931V11.652Z" fill="#20C2EF"/>
<path fill-rule="evenodd" clip-rule="evenodd" d="M52.8639 21.522H53.4377V28.17H52.8639V21.522ZM51.7654 21.522H52.3611V28.17H51.7654V21.522ZM50.6643 21.522H51.2599V28.17H50.6643V21.522ZM49.5631 21.522H50.1588V28.17H49.5631V21.522ZM48.462 21.522H49.0576V28.17H48.462V21.522ZM47.3827 21.522H47.9565V28.17H47.3827V21.522ZM46.7788 20.856H54.0442V28.833H46.7788V20.856Z" fill="#20C2EF"/>
<path fill-rule="evenodd" clip-rule="evenodd" d="M52.8639 12.315H53.4377V18.963H52.8639V12.315ZM51.7654 12.315H52.3611V18.963H51.7654V12.315ZM50.6643 12.315H51.2599V18.963H50.6643V12.315ZM49.5631 12.315H50.1588V18.963H49.5631V12.315ZM48.462 12.315H49.0576V18.963H48.462V12.315ZM47.3827 12.315H47.9565V18.963H47.3827V12.315ZM46.7788 11.652H54.0442V19.629H46.7788V11.652Z" fill="#00ACD3"/>
<path fill-rule="evenodd" clip-rule="evenodd" d="M52.8639 3.111H53.4377V9.759H52.8639V3.111ZM51.7654 3.111H52.3611V9.759H51.7654V3.111ZM50.6643 3.111H51.2599V9.759H50.6643V3.111ZM49.5631 3.111H50.1588V9.759H49.5631V3.111ZM48.462 3.111H49.0576V9.759H48.462V3.111ZM47.3827 3.111H47.9565V9.759H47.3827V3.111ZM46.7788 2.448H54.0442V10.425H46.7788V2.448Z" fill="#20C2EF"/>
<path fill-rule="evenodd" clip-rule="evenodd" d="M61.2494 21.522H61.8232V28.17H61.2494V21.522ZM60.1482 21.522H60.7439V28.17H60.1482V21.522ZM59.0471 21.522H59.6427V28.17H59.0471V21.522ZM57.9459 21.522H58.5416V28.17H57.9459V21.522ZM56.8448 21.522H57.4404V28.17H56.8448V21.522ZM55.7655 21.522H56.3393V28.17H55.7655V21.522ZM55.1616 20.856H62.4271V28.833H55.1616V20.856Z" fill="#00ACD3"/>
<path fill-rule="evenodd" clip-rule="evenodd" d="M36.822 41.769C37.9286 41.769 38.8276 42.756 38.8276 43.971C38.8276 45.186 37.9313 46.173 36.822 46.173C35.7154 46.173 34.8164 45.189 34.8164 43.971C34.8164 42.753 35.7154 41.769 36.822 41.769Z" fill="#D4EDF1"/>
<path fill-rule="evenodd" clip-rule="evenodd" d="M36.8217 42.393C37.0048 42.393 37.1797 42.432 37.3409 42.501C37.166 42.612 37.0485 42.819 37.0485 43.059C37.0485 43.413 37.3108 43.701 37.6332 43.701C37.8546 43.701 38.0486 43.566 38.1469 43.365C38.218 43.551 38.2562 43.755 38.2562 43.971C38.2562 44.841 37.6141 45.546 36.8217 45.546C36.0293 45.546 35.3872 44.841 35.3872 43.971C35.3845 43.098 36.0293 42.393 36.8217 42.393Z" fill="#394D54"/>
<path fill-rule="evenodd" clip-rule="evenodd" d="M1.36621 37.206H45.2758H50.7051H94.6119C92.5817 36.642 88.188 35.877 88.9121 32.955C85.2207 37.644 76.3185 36.246 74.0698 33.933C71.5669 37.917 57.0005 36.402 55.984 33.3C52.8473 37.341 43.1281 37.341 39.9913 33.3C38.9749 36.405 24.4085 37.92 21.9056 33.933C19.6596 36.246 10.7575 37.647 7.06325 32.955C7.79007 35.877 3.39638 36.642 1.36621 37.206Z" fill="#394D54"/>
<path d="M42.1501 57.627C37.1853 55.041 34.4611 51.525 32.9446 47.685C31.1003 48.264 28.8843 48.633 26.3076 48.792C25.3376 48.852 24.3157 48.882 23.2446 48.882C22.0096 48.882 20.709 48.843 19.3428 48.762C23.8949 53.757 29.4963 57.603 39.8658 57.675C40.6336 57.675 41.3932 57.657 42.1501 57.627Z" fill="#BFDBE0"/>
<path d="M34.7887 51.228C34.1028 50.205 33.4361 48.918 32.947 47.685C31.1027 48.264 28.8867 48.633 26.3101 48.792C28.0779 49.848 30.6081 50.823 34.7887 51.228Z" fill="#D4EDF1"/>
</svg>
