<svg width="60" height="60" viewBox="0 0 60 60" fill="none" xmlns="http://www.w3.org/2000/svg">
<path d="M4.1306 26.1196L20.0375 10.1851L24.6885 14.8636C24.028 17.2029 25.1013 19.7623 27.2479 21.0008V36.2472C25.5967 37.1829 24.4959 38.9717 24.4959 41.0083C24.4959 44.0481 26.9602 46.5124 30 46.5124C33.0398 46.5124 35.5041 44.0481 35.5041 41.0083C35.5041 38.9717 34.4033 37.1829 32.7521 36.2472V22.8722L38.4488 28.624C38.2562 29.0368 38.2562 29.5046 38.2562 30C38.2562 33.0398 40.7205 35.5041 43.7603 35.5041C46.8002 35.5041 49.2645 33.0398 49.2645 30C49.2645 26.9602 46.8002 24.4959 43.7603 24.4959C43.2649 24.4959 42.7971 24.4959 42.3843 24.6885L35.3115 17.6157C36.027 15.0563 34.706 12.2492 32.1466 11.1759C30.9632 10.7356 29.7248 10.6255 28.624 10.9282L23.9455 6.27721L26.1196 4.1306C28.2662 1.95647 31.7338 1.95647 33.8804 4.1306L55.8694 26.1196C58.0435 28.2662 58.0435 31.7338 55.8694 33.8804L33.8804 55.8694C31.7338 58.0435 28.2662 58.0435 26.1196 55.8694L4.1306 33.8804C1.95647 31.7338 1.95647 28.2662 4.1306 26.1196Z" fill="#E64A19"/>
</svg>
