<svg width="112" height="60" viewBox="0 0 112 60" fill="none" xmlns="http://www.w3.org/2000/svg">
<g clip-path="url(#clip0_118_239)">
<path d="M0 54.5027H3.68977V39.4835L9.40187 52.5815C10.0756 54.1604 10.9987 54.7277 12.8078 54.7277C14.6169 54.7277 15.5039 54.1666 16.1787 52.5815L21.8914 39.4835V54.5084H25.5817V39.5084C25.5817 38.045 25.013 37.3373 23.8427 36.9719C21.0399 36.0696 19.1592 36.8501 18.3083 38.8012L12.7028 51.7277L7.27344 38.7956C6.4575 36.8445 4.5418 36.064 1.73906 36.9663C0.567656 37.3322 0 38.0399 0 39.5027V54.5027ZM28.6486 42.2738H32.3373V50.552C32.3028 51.002 32.4773 52.0576 34.4985 52.0898C35.5299 52.1067 42.4577 52.0898 42.5223 52.0898V42.2326H46.2191C46.2355 42.2326 46.2153 55.6728 46.2159 55.7304C46.2361 59.045 42.227 59.7651 40.3796 59.821H28.729V57.2608L40.4004 57.2602C42.7749 57.0008 42.4949 55.7845 42.4949 55.3745V54.3764H34.6527C31.004 54.3426 28.6809 52.6999 28.6519 50.8108C28.6491 50.6416 28.7306 42.355 28.6497 42.2732L28.6486 42.2738Z" fill="#00618A"/>
<path d="M49.0635 54.5028H59.6718C60.9132 54.5028 62.1201 54.2349 63.0788 53.7708C64.6757 53.0152 65.4561 51.9905 65.4561 50.649V47.8689C65.4561 46.771 64.569 45.7469 62.8311 45.064C61.9085 44.6975 60.7732 44.5029 59.6734 44.5029H55.2027C53.713 44.5029 53.0032 44.0394 52.826 43.0153C52.7904 42.8935 52.7904 42.7898 52.7904 42.6736V40.9424C52.7904 40.8449 52.7904 40.7467 52.826 40.6249C53.0032 39.8445 53.3936 39.6246 54.7061 39.4971C54.8128 39.4971 54.9544 39.4723 55.0616 39.4723H65.5988V36.9364H55.2388C53.7486 36.9364 52.9682 37.034 52.2583 37.2533C50.0566 37.961 49.0985 39.0888 49.0985 41.04V43.2595C49.0985 44.967 50.9797 46.4304 54.1363 46.7716C54.4918 46.7958 54.8461 46.82 55.2005 46.82H59.0325C59.1746 46.82 59.3168 46.82 59.4229 46.8449C60.5932 46.9424 61.0909 47.1618 61.4453 47.6005C61.664 47.8261 61.7296 48.0403 61.7296 48.2772V50.4967C61.7296 50.7652 61.5525 51.1069 61.1975 51.399C60.8782 51.6922 60.3461 51.8868 59.6362 51.9358C59.494 51.9358 59.3879 51.9601 59.2463 51.9601H49.0635V54.4966V54.5028ZM88.4735 50.0885C88.4735 52.6982 90.3536 54.1616 94.15 54.4543C94.5042 54.4825 94.8591 54.4987 95.2143 54.5028H104.829V51.9663H95.1432C92.9792 51.9663 92.1627 51.4052 92.1627 50.0637V36.9415H88.4729V50.0873L88.4735 50.0885ZM67.8098 50.2204V41.1781C67.8098 38.8808 69.3739 37.4873 72.467 37.0475C72.7969 36.9989 73.1296 36.9744 73.4629 36.9742H80.4667C80.8117 36.9744 81.1563 36.9989 81.4981 37.0475C84.5912 37.4873 86.1553 38.8802 86.1553 41.1781V50.2204C86.1553 52.0841 85.4908 53.0817 83.9596 53.7319L87.5941 57.1154H83.3099L80.3693 54.3781L77.4091 54.5716H73.4629C72.7875 54.5716 72.0765 54.4734 71.2939 54.2535C68.9424 53.5937 67.8098 52.3227 67.8098 50.2204ZM71.7927 49.9949C71.7927 50.1172 71.8282 50.239 71.8638 50.3862C72.0825 51.4373 73.0368 52.0238 74.4888 52.0238H77.8411L74.7622 49.1575H79.0464L81.7261 51.6573C82.2211 51.3855 82.5464 50.9693 82.6558 50.4353C82.6914 50.3135 82.6914 50.1911 82.6914 50.0687V41.3986C82.6914 41.3011 82.6914 41.1731 82.6558 41.0563C82.4371 40.0791 81.4822 39.5169 80.0603 39.5169H74.4954C72.8547 39.5169 71.7938 40.2499 71.7938 41.3986V50.0016L71.7927 49.9949Z" fill="#E48E00"/>
<path d="M108.075 32.7335C105.808 32.6704 104.075 32.8875 102.594 33.5315C102.173 33.7147 101.501 33.7193 101.433 34.2634C101.664 34.5132 101.701 34.8865 101.884 35.1939C102.238 35.7843 102.835 36.5755 103.367 36.9894C103.949 37.4422 104.549 37.9271 105.174 38.3202C106.284 39.0183 107.523 39.417 108.592 40.1157C109.222 40.5273 109.847 41.0461 110.462 41.5119C110.766 41.742 110.971 42.0995 111.364 42.2433V42.1768C111.157 41.9044 111.104 41.53 110.913 41.2463L110.075 40.3818C109.255 39.254 108.214 38.2745 107.108 37.4551C106.226 36.8021 104.251 35.9202 103.883 34.8612L103.819 34.7946C104.444 34.7213 105.176 34.4884 105.755 34.3294C106.724 34.0615 107.591 34.1303 108.593 33.8642L109.947 33.4649V33.1988C109.441 32.663 109.08 31.9542 108.528 31.4698C107.085 30.201 105.508 28.935 103.885 27.8777C102.985 27.2912 101.873 26.9112 100.919 26.4144C100.598 26.2474 100.034 26.1606 99.822 25.882C99.3211 25.2234 99.0482 24.3877 98.6616 23.6264C97.8522 22.0193 97.057 20.2632 96.3395 18.5721C95.8501 17.4189 95.5302 16.2815 94.921 15.2467C91.9924 10.282 88.8397 7.28541 83.9572 4.34068C82.9181 3.71474 81.6674 3.46662 80.3451 3.1435L78.2166 3.01041C77.7835 2.82432 77.3329 2.27733 76.926 2.01229C75.3084 0.957783 71.1592 -1.33338 69.961 1.67395C69.2047 3.57602 71.0914 5.43184 71.7668 6.39613C72.2404 7.07282 72.8474 7.83015 73.1854 8.59087C73.408 9.09049 73.4468 9.59181 73.6371 10.1208C74.1058 11.4177 74.5138 12.8405 75.1202 14.0444C75.4265 14.6535 75.7645 15.2952 76.1522 15.8399C76.3901 16.1743 76.7975 16.3215 76.8615 16.838C76.4634 17.4132 76.4404 18.3042 76.2162 19.0328C75.2083 22.3102 75.5884 26.3833 77.0545 28.8093C77.5046 29.5536 78.5639 31.1506 80.0213 30.5382C81.2956 30.0025 81.0057 28.3446 81.3759 26.8807C81.458 26.548 81.4077 26.3055 81.5695 26.0828V26.1493L82.7306 28.5431C83.5892 29.9698 85.1149 31.4614 86.4067 32.4679C87.0766 32.9895 87.6098 33.8918 88.4706 34.1969V34.1303H88.406C88.2381 33.8597 87.9756 33.7486 87.7607 33.5326C87.256 33.0223 86.6943 32.3879 86.277 31.8036C85.1013 30.1582 84.0633 28.3582 83.1172 26.4832C82.6655 25.5882 82.2723 24.6008 81.8922 23.6901C81.7456 23.3388 81.7473 22.8082 81.441 22.626C81.0238 23.2937 80.4091 23.8328 80.0864 24.6211C79.5702 25.8809 79.5035 27.417 79.3126 29.0106C79.1994 29.0523 79.2497 29.0236 79.1835 29.0771C78.2856 28.8538 77.9695 27.9003 77.6359 27.082C76.7915 25.0125 76.6351 21.682 77.3777 19.3012C77.5691 18.6854 78.4387 16.7444 78.087 16.1755C77.9191 15.6076 77.3652 15.2732 77.0551 14.8446C76.6723 14.3089 76.2884 13.6018 76.0231 12.9826C75.3319 11.3698 75.0092 9.55966 74.2819 7.92827C73.9341 7.14895 73.3467 6.3606 72.8633 5.67263C72.3284 4.90572 71.7296 4.33955 71.3156 3.41699C71.168 3.08711 70.9678 2.55985 71.1866 2.21981C71.2075 2.12212 71.255 2.03262 71.3236 1.96187C71.3922 1.89113 71.479 1.8421 71.5738 1.82057C71.9478 1.52338 72.9902 1.91925 73.3795 2.08673C74.4131 2.52996 75.2772 2.95177 76.1533 3.55008C76.5744 3.83203 76.9993 4.39369 77.5074 4.5482H78.087C78.9949 4.76361 80.012 4.61587 80.8597 4.8809C82.3592 5.35064 83.7024 6.08203 84.923 6.87602C88.6406 9.29632 91.6796 12.7418 93.7588 16.8572C94.0935 17.5187 94.2379 18.1508 94.5327 18.8523C95.1271 20.2621 95.8758 21.7243 96.4675 23.1082C97.0581 24.4897 97.6324 25.8826 98.4669 27.0318C98.9055 27.6352 100.6 27.96 101.369 28.295C101.909 28.5302 102.793 28.7755 103.304 29.0929C104.28 29.7003 105.226 30.4238 106.142 31.0892C106.6 31.4219 108.007 32.151 108.077 32.7516L108.075 32.7335Z" fill="#00618A"/>
<path fill-rule="evenodd" clip-rule="evenodd" d="M79.2474 7.39596C78.7744 7.38694 78.4403 7.44897 78.0864 7.52905V7.59559H78.151C78.3763 8.07378 78.7744 8.38111 79.0533 8.79277L79.6986 10.189L79.7631 10.1225C80.1624 9.83205 80.3456 9.36796 80.3428 8.65912C80.1826 8.48544 80.1591 8.26777 80.0202 8.06025C79.8359 7.78393 79.4733 7.62717 79.2463 7.39484L79.2474 7.39596Z" fill="#00618A"/>
<path fill-rule="evenodd" clip-rule="evenodd" d="M106.562 51.8941C106.562 53.5689 107.845 54.6979 109.281 54.6979C110.716 54.6979 112 53.5689 112 51.8941C112 50.2193 110.716 49.0903 109.281 49.0903C107.845 49.0903 106.562 50.2193 106.562 51.8941ZM111.39 51.8941C111.39 53.1651 110.448 54.1148 109.279 54.1148C108.098 54.1148 107.169 53.1651 107.169 51.8941C107.169 50.623 108.097 49.6734 109.279 49.6734C110.447 49.6734 111.39 50.623 111.39 51.8941ZM110.012 53.4945H110.621L109.73 52.0892C110.208 52.0368 110.57 51.7971 110.57 51.214C110.57 50.5633 110.171 50.2948 109.403 50.2948H108.192V53.495H108.714V52.1118H109.2L110.012 53.495L110.012 53.4945ZM108.714 51.6618V50.7426H109.316C109.627 50.7426 110.005 50.8024 110.005 51.1768C110.005 51.6251 109.664 51.6629 109.272 51.6629H108.714V51.6618Z" fill="#E48E00"/>
</g>
<defs>
<clipPath id="clip0_118_239">
<rect width="112" height="60" fill="white"/>
</clipPath>
</defs>
</svg>
