<svg width="60" height="60" viewBox="0 0 60 60" fill="none" xmlns="http://www.w3.org/2000/svg">
<g clip-path="url(#clip0_118_211)">
<path d="M0 29.4887C0.025 29.4062 0.045 29.3212 0.05625 29.2362C0.1025 28.365 0.1125 27.4837 0.20625 26.6112C0.3525 23.7862 1.295 21.0612 2.925 18.7487C3.65979 17.7543 4.61767 16.9462 5.72163 16.3893C6.82558 15.8325 8.0448 15.5424 9.28125 15.5425H29.5125C29.9063 15.5425 29.9062 15.5425 29.9062 15.1487V13.7425C29.9062 13.4525 29.8212 13.3875 29.55 13.3875H15.7788C15.5438 13.3875 15.46 13.3212 15.46 13.0775V6.2075C15.505 5.2125 15.92 4.27 16.6225 3.56375C17.5555 2.57078 18.7171 1.82108 20.0062 1.38C21.5806 0.813951 23.2174 0.439589 24.8813 0.264996C27.1557 0.00531556 29.4478 -0.0636749 31.7337 0.0587464C34.1987 0.104996 36.6375 0.557496 38.9538 1.39875C40.5425 1.93457 41.9467 2.90977 43.0037 4.21125C43.8536 5.30483 44.2738 6.67163 44.185 8.05375C44.1287 9.21625 44.185 10.3875 44.185 11.5587V18.0462C44.185 19.32 44.185 20.6037 44.1288 21.8687C44.1196 23.2406 43.6943 24.5773 42.9091 25.7022C42.1239 26.8271 41.0158 27.6872 39.7312 28.1687C38.485 28.679 37.149 28.9336 35.8025 28.9175H21.4775C19.9627 28.8885 18.4697 29.281 17.165 30.0512C15.4966 31.0999 14.308 32.7631 13.8563 34.6812C13.5844 35.6481 13.4485 36.6481 13.4525 37.6525V44.1475C13.4525 44.5787 13.4525 44.57 13.0212 44.5787C11.465 44.5787 9.90875 44.6262 8.33375 44.5787C6.79236 44.5165 5.32214 43.9133 4.18125 42.875C2.85503 41.6688 1.86625 40.1376 1.3125 38.4325C0.751276 36.8826 0.394928 35.266 0.2525 33.6237C0.15875 32.5737 0.12125 31.5237 0.05625 30.4837C0.0440637 30.3674 0.0252835 30.2518 0 30.1375L0 29.4887Z" fill="#3772A4"/>
<path d="M19.0039 7.17252C19.0076 7.69261 19.1652 8.19996 19.4569 8.63061C19.7485 9.06125 20.1611 9.39591 20.6427 9.59238C21.1243 9.78885 21.6532 9.83834 22.1629 9.73461C22.6725 9.63087 23.1401 9.37857 23.5065 9.00949C23.873 8.64042 24.122 8.17111 24.2221 7.66073C24.3222 7.15035 24.269 6.62176 24.0691 6.14159C23.8692 5.66143 23.5316 5.2512 23.0989 4.96262C22.6662 4.67404 22.1578 4.52003 21.6377 4.52002C20.9375 4.5253 20.2678 4.80704 19.7745 5.30388C19.2812 5.80071 19.0042 6.47237 19.0039 7.17252Z" fill="black"/>
<path d="M19.0039 7.17247C19.0039 6.82611 19.0721 6.48314 19.2047 6.16315C19.3372 5.84315 19.5315 5.55239 19.7764 5.30748C20.0213 5.06256 20.3121 4.86829 20.6321 4.73574C20.9521 4.60319 21.295 4.53497 21.6414 4.53497C21.9878 4.53497 22.3307 4.60319 22.6507 4.73574C22.9707 4.86829 23.2615 5.06256 23.5064 5.30748C23.7513 5.55239 23.9456 5.84315 24.0781 6.16315C24.2107 6.48314 24.2789 6.82611 24.2789 7.17247C24.2789 7.87198 24.001 8.54284 23.5064 9.03747C23.0118 9.53209 22.3409 9.80997 21.6414 9.80997C20.9419 9.80997 20.271 9.53209 19.7764 9.03747C19.2818 8.54284 19.0039 7.87198 19.0039 7.17247Z" fill="white"/>
<path d="M60.0001 30.5012C59.9751 30.5837 59.9551 30.6687 59.9439 30.755C59.8976 31.6262 59.8876 32.5075 59.7939 33.38C59.6474 36.2048 58.7049 38.9306 57.0751 41.2425C56.3413 42.2385 55.3838 43.0484 54.2798 43.6068C53.1758 44.1652 51.9561 44.4566 50.7189 44.4575H30.4876C30.0939 44.4575 30.0939 44.4575 30.0939 44.8512V46.2575C30.0939 46.5475 30.1789 46.6137 30.4501 46.6137H44.2226C44.4564 46.6137 44.5414 46.6787 44.5414 46.9225V53.7925C44.4956 54.7875 44.0812 55.7299 43.3789 56.4362C42.4456 57.4294 41.2835 58.1791 39.9939 58.62C38.4228 59.1852 36.7894 59.5596 35.1289 59.735C32.8539 59.995 30.5614 60.0637 28.2751 59.9412C25.8115 59.8956 23.3723 59.4429 21.0564 58.6012C19.4677 58.0654 18.0634 57.0902 17.0064 55.7887C16.1566 54.6952 15.7364 53.3284 15.8251 51.9462C15.8814 50.7837 15.8251 49.6125 15.8251 48.4412V41.9537C15.8251 40.68 15.8251 39.3962 15.8814 38.1312C15.8902 36.7595 16.3153 35.4228 17.1003 34.2979C17.8853 33.173 18.9932 32.3128 20.2776 31.8312C21.5239 31.321 22.8599 31.0664 24.2064 31.0825H38.5226C40.0374 31.1115 41.5305 30.719 42.8351 29.9487C44.5056 28.8977 45.6944 27.2305 46.1439 25.3087C46.4157 24.3418 46.5515 23.3418 46.5476 22.3375V15.8425C46.5476 15.4112 46.5476 15.4212 46.9789 15.4112C48.5351 15.4112 50.0914 15.365 51.6664 15.4112C53.2081 15.4741 54.6783 16.0783 55.8189 17.1175C57.1451 18.3238 58.1338 19.855 58.6876 21.56C59.2468 23.116 59.5998 24.7386 59.7376 26.3862C59.8314 27.4362 59.8689 28.4862 59.9351 29.5262C59.9476 29.64 59.9664 29.7525 59.9914 29.8637C59.9976 30.07 60.0001 30.2825 60.0001 30.5012Z" fill="#FFDA4B"/>
<path d="M40.9964 52.49C40.9927 51.9699 40.8351 51.4626 40.5435 51.0319C40.2518 50.6013 39.8392 50.2666 39.3577 50.0701C38.8761 49.8737 38.3471 49.8242 37.8375 49.9279C37.3278 50.0316 36.8603 50.284 36.4938 50.653C36.1274 51.0221 35.8784 51.4914 35.7783 52.0018C35.6781 52.5122 35.7314 53.0408 35.9313 53.5209C36.1311 54.0011 36.4687 54.4113 36.9014 54.6999C37.3341 54.9885 37.8426 55.1425 38.3627 55.1425C39.0628 55.1372 39.7325 54.8555 40.2258 54.3586C40.7191 53.8618 40.9961 53.1902 40.9964 52.49Z" fill="black"/>
<path d="M40.9962 52.49C40.9962 53.1895 40.7183 53.8603 40.2237 54.355C39.7291 54.8496 39.0582 55.1275 38.3587 55.1275C37.6592 55.1275 36.9883 54.8496 36.4937 54.355C35.9991 53.8603 35.7212 53.1895 35.7212 52.49C35.7212 51.7905 35.9991 51.1196 36.4937 50.625C36.9883 50.1304 37.6592 49.8525 38.3587 49.8525C39.0582 49.8525 39.7291 50.1304 40.2237 50.625C40.7183 51.1196 40.9962 51.7905 40.9962 52.49Z" fill="white"/>
</g>
<defs>
<clipPath id="clip0_118_211">
<rect width="60" height="60" fill="white"/>
</clipPath>
</defs>
</svg>
